<?xml version="1.0" encoding="iso-8859-1"?>
<!-- Generator: Adobe Illustrator 19.0.0, SVG Export Plug-In . SVG Version: 6.00 Build 0)  -->
<svg version="1.1" id="Layer_1" xmlns="http://www.w3.org/2000/svg" xmlns:xlink="http://www.w3.org/1999/xlink" x="0px" y="0px"
	 viewBox="0 0 460 460" style="enable-background:new 0 0 460 460;" xml:space="preserve">
<g>
	<path style="fill:#FFC61B;" d="M230,0C102.974,0,0,102.975,0,230c0,105.239,70.681,193.971,167.163,221.312l289.77-258.966
		C438.964,83.233,344.202,0,230,0z"/>
	<path style="fill:#D48B07;" d="M460,230c0-12.826-1.067-25.401-3.086-37.656l-64.987-64.987l-33.258-3.918l-90.863-90.863
		L103.428,387.571l63.739,63.739C187.139,456.97,208.216,460,230,460C357.025,460,460,357.025,460,230z"/>
	<path style="fill:#C2FBFF;" d="M257,84.025V43h-54v54l27,343c98.868,0,179-80.152,179-179C409,171.311,343.054,97.042,257,84.025z"
		/>
	<polygon style="fill:#71E2F0;" points="275,72 185,72 185,52 230,42 275,52 	"/>
	<path style="fill:#C2FBFF;" d="M245,22h-30c-16.5,0-30,13.5-30,30h90C275,35.5,261.5,22,245,22z"/>
	
		<rect x="340.107" y="105.889" transform="matrix(-0.7071 -0.7071 0.7071 -0.7071 522.188 478.0753)" style="fill:#71E2F0;" width="40" height="50"/>
	
		<rect x="79.895" y="105.893" transform="matrix(0.7071 -0.7071 0.7071 0.7071 -63.2966 108.9736)" style="fill:#C2FBFF;" width="40" height="50"/>
	<path style="fill:#FFFFFF;" d="M230,82v358c-98.868,0-179-80.152-179-179C51,162.132,131.132,82,230,82z"/>
	<path style="fill:#71E2F0;" d="M230,420l-16.737-167.368L389,261C389,348.676,317.676,420,230,420z"/>
	<path style="fill:#71E2F0;" d="M230,102c87.676,0,159,71.324,159,159H213.263L230,102z"/>
	<path style="fill:#71E2F0;" d="M230,261v159c-87.676,0-159-71.324-159-159l79.5-25.105L230,261z"/>
	<path style="fill:#C2FBFF;" d="M230,102v159H71C71,173.324,142.324,102,230,102z"/>
	<path style="fill:#71E2F0;" d="M230,400l-14.632-146.316L369,261C369,337.648,306.648,400,230,400z"/>
	<path style="fill:#C2FBFF;" d="M230,122c76.648,0,139,62.352,139,139H215.368L230,122z"/>
	<path style="fill:#C2FBFF;" d="M230,261v139c-76.648,0-139-62.352-139-139l69.5-21.947L230,261z"/>
	<path style="fill:#FFFFFF;" d="M230,122v139H91C91,184.352,153.352,122,230,122z"/>
	
		<rect x="244.403" y="152.106" transform="matrix(-0.7071 -0.7071 0.7071 -0.7071 266.998 583.78)" style="fill:#FFC61B;" width="20.001" height="168.974"/>
	<circle style="fill:#D48B07;" cx="230" cy="261" r="30"/>
</g>
<g>
</g>
<g>
</g>
<g>
</g>
<g>
</g>
<g>
</g>
<g>
</g>
<g>
</g>
<g>
</g>
<g>
</g>
<g>
</g>
<g>
</g>
<g>
</g>
<g>
</g>
<g>
</g>
<g>
</g>
</svg>
